<svg xmlns="http://www.w3.org/2000/svg" viewBox="0 0 680 160" width="680" height="160" role="img" aria-label="0x13d::att&amp;ck — Browser EDR rule authoring">
  <defs>
    <linearGradient id="ink" x1="0" y1="0" x2="0" y2="1">
      <stop offset="0" stop-color="#3A465F"/>
      <stop offset="1" stop-color="#232B3E"/>
    </linearGradient>
  </defs>
  <rect x="0" y="0" width="680" height="160" rx="28" fill="url(#ink)"/>

  <!-- rabbit mark -->
  <g transform="translate(40 16) scale(0.97)">
    <g fill="#FFFFFF">
      <ellipse cx="51" cy="43" rx="8.5" ry="27" transform="rotate(-13 51 43)"/>
      <ellipse cx="77" cy="43" rx="8.5" ry="27" transform="rotate(13 77 43)"/>
      <ellipse cx="64" cy="82" rx="27" ry="25"/>
    </g>
    <g fill="#2A3350">
      <ellipse cx="52" cy="46" rx="3.4" ry="17" transform="rotate(-13 52 46)"/>
      <ellipse cx="76" cy="46" rx="3.4" ry="17" transform="rotate(13 76 46)"/>
      <circle cx="55" cy="79" r="3.1"/>
      <circle cx="73" cy="79" r="3.1"/>
      <path d="M64 87.5 l4 4.2 h-8 z"/>
    </g>
  </g>

  <!-- wordmark -->
  <g font-family="ui-monospace, SFMono-Regular, Menlo, Consolas, monospace" font-weight="700">
    <text x="180" y="92" font-size="46">
      <tspan fill="#8EA2C8">0x13d</tspan><tspan fill="#5C6B8A">::</tspan><tspan fill="#FFFFFF">att&amp;ck</tspan>
    </text>
    <text x="182" y="122" font-size="17" font-weight="500" fill="#93A0B8" font-family="ui-sans-serif, system-ui, sans-serif" letter-spacing="0.5">Browser EDR — rule authoring &amp; tuning</text>
  </g>
</svg>
